<svg data-v-0dd9719b="" version="1.0" xmlns="http://www.w3.org/2000/svg" xmlns:xlink="http://www.w3.org/1999/xlink" width="100%" height="100%" viewBox="0 0 340.000000 250.000000" preserveAspectRatio="xMidYMid meet" color-interpolation-filters="sRGB" style="margin: auto;"> <rect data-v-0dd9719b="" x="0" y="0" width="100%" height="100%" fill="#fff" fill-opacity="1" class="background"></rect> <rect data-v-0dd9719b="" x="0" y="0" width="100%" height="100%" fill="url(#watermark)" fill-opacity="1" class="watermarklayer"></rect> <g data-v-0dd9719b="" fill="#333" class="icon-text-wrapper icon-svg-group iconsvg" transform="translate(49.35499572753906,94.03641319274902)"><g class="iconsvg-imagesvg" transform="translate(0,0)"><g><rect fill="#333" fill-opacity="0" stroke-width="2" x="0" y="0" width="60" height="61.9271736437949" class="image-rect"></rect> <svg x="0" y="0" width="60" height="61.9271736437949" filtersec="colorsb5240581765" class="image-svg-svg primary" style="overflow: visible;"><svg xmlns="http://www.w3.org/2000/svg" viewBox="-0.000036686753446701914 0 2202.8798828125 2273.639892578125"><g><g fill-rule="evenodd"><path d="M1179.67 558.16c171.66 0 311.66 140 311.66 311.66s-140 311.67-311.66 311.67S868 1041.5 868 869.82s140-311.66 311.66-311.66z" fill="#ffcb05"></path><path d="M1099.22 593c108.17 0 196.39 88.22 196.39 196.39s-88.22 196.39-196.39 196.39-196.39-88.23-196.39-196.4S991.05 593 1099.22 593z" fill="#fff200"></path><path d="M1777.31 634.57a879.64 879.64 0 0 1 124.92 452.6c0 487.89-397.94 885.8-885.82 885.8-392.85 0-727.31-258-842.72-613.26 154.87 259.08 438.17 433.23 760.89 433.23 487.87 0 885.81-397.93 885.81-885.81a880.58 880.58 0 0 0-43.08-272.56z" fill="#0066a6"></path><path d="M1599.72 1269.94c-123.06 230.47-366.06 388-644.73 388-402.25 0-730.34-328.09-730.34-730.35 0-176.12 62.91-338 167.39-464.41a731.71 731.71 0 0 0-64.28 300.56c0 406 331.12 737.09 737.09 737.09 210.23 0 400.38-88.83 534.87-230.84z" fill="#ed174b"></path><path d="M1037.21 214.45c142 0 272.21 51.76 372.89 137.35a562.89 562.89 0 0 0-230.43-49.1c-312.35 0-567.12 254.78-567.12 567.12 0 196.92 101.28 370.91 254.38 472.65-235-72.94-406.59-292.65-406.59-551.14 0-317.73 259.15-576.88 576.87-576.88z" fill="#0066a6"></path><path d="M1101.44 70.75c606.65 0 1101.44 494.79 1101.44 1101.44s-494.79 1101.45-1101.44 1101.45S0 1778.84 0 1172.19a1097.5 1097.5 0 0 1 32.14-263.94A999.58 999.58 0 0 0 16 1087.17c0 551 449.38 1000.37 1000.37 1000.37S2016.8 1638.16 2016.8 1087.17 1567.39 86.79 1016.41 86.79a999.58 999.58 0 0 0-178.92 16.1 1097 1097 0 0 1 264-32.14z" fill="#56c5d0"></path><path fill="#ed174b" d="M500.54 0l39.25 113.68 113.68 39.23-113.68 39.25-39.25 113.68-39.23-113.68-113.68-39.25 113.68-39.23L500.54 0z"></path><path fill="#56c5d0" d="M129.48 340.5l27.06 78.39 78.38 27.05L156.54 473l-27.06 78.38L102.43 473l-78.38-27.06 78.38-27.05 27.05-78.39z"></path><path fill="#ffcb05" d="M1598.74 423.6l27.06 78.38 78.38 27.05-78.38 27.06-27.06 78.39-27.04-78.39-78.38-27.06 78.38-27.05 27.04-78.38z"></path></g></g></svg></svg> <!----></g></g> <g transform="translate(67,3.3973350524902344)"><g data-gra="path-name" fill-rule="" class="tp-name iconsvg-namesvg" transform="translate(0,0)"><g transform="scale(1)"><g><path d="M20.44-24.15L24.41-24.15 24.41-30.29 20.44-30.29 20.44-24.15ZM35.13-13.08L35.04-13.03 35.04-20.96 29.81-20.96Q29.81-13.42 29.99-13.27 30.16-13.12 30.55-13.12L30.55-13.12Q35.13-13.12 35.13-13.08L35.13-13.08ZM10.37-2.79L35.04-2.79 35.04-9.85 30.03-9.85Q26.46-9.85 25.43-10.98 24.41-12.12 24.41-14.77L24.41-14.77 24.41-20.96 20.4-20.96Q20.35-17.52 18.68-14.27 17-11.03 10.94-8.02L10.94-8.02Q10.42-8.89 9.54-10.07L9.54-10.07Q9.59-10.07 10.37-9.2L10.37-9.2 10.37-2.79ZM10.37-20.96L10.37-11.68Q12.33-12.73 13.71-15.25 15.08-17.78 15.17-20.96L15.17-20.96 10.37-20.96ZM10.37 0.44L10.37 3.01 4.88 3.01 4.88-24.15 15.21-24.15 15.21-30.29 2.62-30.29 2.62-33.69 42.45-33.69 42.45-30.29 29.81-30.29 29.81-24.15 40.71-24.15 40.71 2.92 35.04 2.92 35.04 0.44 10.37 0.44ZM68.43-8.28L68.43-8.28Q71.17-10.85 73.35-16.17L73.35-16.17 64.15-16.17Q62.85-13.95 60.84-10.98L60.84-10.98Q65.11-9.59 68.43-8.28ZM86.43-31.47L86.43-22.84 80.54-22.84 80.54-28.2 54.78-28.2 54.78-22.84 49.12-22.84 49.12-31.47 64.85-31.47Q63.98-33.65 63.11-35.35L63.11-35.35 68.43-36.65Q70.04-33.69 71.04-31.47L71.04-31.47 86.43-31.47ZM86.3 0L82.94 3.53Q77.01-0.39 69.56-3.62L69.56-3.62Q63.11 1.05 51.04 3.27L51.04 3.27Q50.51 2 49.12-0.09L49.12-0.09Q58.23-1.44 65.11-5.58L65.11-5.58Q60.54-7.45 53.74-9.81L53.74-9.81 58.01-16.17 48.12-16.17 48.12-19.48 59.97-19.48Q61.76-22.75 63.2-26.46L63.2-26.46 68.91-25.28Q68.03-23.23 66.07-19.48L66.07-19.48 87.47-19.48 87.47-16.17 79.37-16.17Q77.4-10.9 73.09-6.41L73.09-6.41Q81.59-2.83 86.3 0L86.3 0ZM129.27-30.25L129.27-26.37 96.58-26.37 96.58-30.25 129.27-30.25ZM132.89-4.88L132.89-0.78 92.96-0.78 92.96-4.88 132.89-4.88ZM141.12 3.18L141.12 3.18 138.86 3.14Q138.86 1.18 138.03-0.35L138.03-0.35Q140.25-0.17 141.65-0.17L141.65-0.17Q142.65-0.17 143.22-0.26L143.22-0.26Q145.57-0.52 145.57-13.21L145.57-13.21 145.57-11.94Q144.31-10.15 139.86-6.36L139.86-6.36Q138.68-8.15 137.94-8.98 137.2-9.81 137.2-9.85L137.2-9.85Q138.81-10.98 141.12-13.66 143.43-16.34 145.18-19.66L145.18-19.66Q144.74-22.71 144.22-24.1L144.22-24.1Q143.26-23.14 139.73-20.53L139.73-20.53Q138.51-22.01 137.75-22.75 136.98-23.49 136.94-23.49L136.94-23.49Q139.16-25.15 142.26-28.37L142.26-28.37Q140.08-31.95 137.51-34.04L137.51-34.04 140.64-36.48Q144.44-33.43 145.35-32.16L145.35-32.16Q146.22-33.38 147.97-36.39L147.97-36.39 152.5-34.04Q151.06-31.6 148.05-28.07L148.05-28.07Q150.01-24.06 150.52-20.48 151.02-16.91 151.02-13.12L151.02-13.12Q151.02-2.22 148.75 0.96L148.75 0.96Q147.7 2.44 145.7 2.81 143.69 3.18 141.12 3.18ZM159.08-10.24L163.22-10.24 163.22-18.57 159.08-18.57 159.08-10.24ZM166.92 3.14L166.92 3.14Q165.31 3.14 163.31 3.05L163.31 3.05Q163.26 2.22 162.89 0.98 162.52-0.26 162.39-0.52L162.39-0.52Q166.79-0.26 168.23-0.26L168.23-0.26Q169.8-0.26 170.5-7.71L170.5-7.71Q171.02-13.69 171.28-26.76L171.28-26.76 158.47-26.76Q157.34-24.45 155.42-21.53L155.42-21.53 168.41-21.53 168.41-7.32 159.08-7.32 159.08-4.18 153.85-4.18 153.85-19.35Q154.15-19.83 154.15-19.92L154.15-19.92Q154.07-19.92 153.11-18.78L153.11-18.78Q151.37-20.4 149.49-21.79L149.49-21.79Q154.02-27.07 156.64-36.48L156.64-36.48 161.96-35.22Q161.3-33.21 160-29.94L160-29.94 176.91-29.94 176.91-28.15Q176.51-13.34 175.99-6.93 175.47-0.52 174.38 0.65L174.38 0.65Q172.85 2.83 170.15 3.01L170.15 3.01Q168.84 3.14 166.92 3.14Z" transform="translate(-2.619999885559082, 36.650001525878906)"></path></g> <!----> <!----> <!----> <!----> <!----> <!----> <!----></g></g> <g data-gra="path-slogan" fill-rule="" class="tp-slogan iconsvg-slogansvg" fill="#333" transform="translate(5,46.18000030517578)"><rect x="0" height="1" y="3.9750003814697266" width="41.03500747680664"></rect> <rect height="1" y="3.9750003814697266" width="41.03500747680664" x="123.25500106811523"></rect> <g transform="translate(44.03500747680664,0)"><g transform="scale(1)"><path d="M7.64-8.58L4.73-4.41L7.78 0L6.33 0L3.98-3.52L1.64 0L0.23 0L3.33-4.41L0.42-8.58L1.88-8.58L4.03-5.30L6.23-8.58L7.64-8.58ZM9.05-8.58L10.22-8.58L10.22 0L9.05 0L9.05-8.58ZM12.89-5.53L12-5.53L12-8.58L12.89-8.58L12.89-5.53ZM20.11 0L19.27-2.48L15.80-2.48L14.91 0L13.73 0L16.97-8.58L18.28-8.58L21.38 0L20.11 0ZM17.53-7.31L16.17-3.52L18.84-3.52L17.58-7.31L17.53-7.31ZM23.81-8.58L28.13-1.64L28.13-8.58L29.25-8.58L29.25 0L27.94 0L23.58-6.94L23.53-6.94L23.53 0L22.41 0L22.41-8.58L23.81-8.58ZM35.67-1.03L40.83-1.03L40.83 0L34.50 0L34.50-8.58L40.73-8.58L40.73-7.59L35.67-7.59L35.67-4.92L40.36-4.92L40.36-3.89L35.67-3.89L35.67-1.03ZM46.45-3.70L43.64-3.70L43.64 0L42.47 0L42.47-8.58L46.45-8.58Q49.31-8.58 49.31-6.28L49.31-6.28Q49.31-4.88 48.09-4.22L48.09-4.22Q49.13-3.94 49.13-2.58L49.13-2.58L49.22-1.03Q49.17-0.38 49.64-0.19L49.64-0.19L49.64 0L48.19 0Q48.05-0.61 48-2.16L48-2.16Q48.05-3.70 46.45-3.70L46.45-3.70ZM46.55-7.64L43.64-7.64L43.64-4.69L46.36-4.69Q48.09-4.69 48.09-6.19L48.09-6.19Q48.09-7.64 46.55-7.64L46.55-7.64ZM57.38-3.61L54.75-3.61L54.75-4.59L58.50-4.59L58.50 0L57.75 0L57.47-1.08Q56.48 0.09 54.66 0.14L54.66 0.14Q52.92 0.14 51.98-0.75L51.98-0.75Q50.58-2.06 50.63-4.36L50.63-4.36Q50.95-8.63 54.70-8.81L54.70-8.81Q57.89-8.63 58.36-6L58.36-6L57.23-6Q56.77-7.78 54.66-7.83L54.66-7.83Q51.98-7.64 51.84-4.31L51.84-4.31Q51.84-0.75 54.70-0.75L54.70-0.75Q55.73-0.75 56.48-1.31L56.48-1.31Q57.42-2.06 57.38-3.61L57.38-3.61ZM67.08-4.27L67.08-4.27Q66.89-7.64 64.08-7.83L64.08-7.83Q61.22-7.69 61.08-4.27L61.08-4.27Q61.22-0.94 64.08-0.80L64.08-0.80Q66.89-0.98 67.08-4.27ZM68.25-4.27L68.25-4.27Q67.97 0 64.08 0.14L64.08 0.14Q60.14 0 59.86-4.27L59.86-4.27Q60.09-8.72 64.08-8.81L64.08-8.81Q67.97-8.67 68.25-4.27ZM75.28-3.19L75.28-8.58L76.45-8.58L76.45-3.05Q76.31 0.05 72.94 0.14L72.94 0.14Q69.80 0.05 69.66-2.86L69.66-2.86L69.66-8.58L70.83-8.58L70.83-3.19Q70.88-0.84 72.98-0.80L72.98-0.80Q75.28-0.84 75.28-3.19L75.28-3.19Z" transform="translate(-0.234375, 8.8125)"></path></g></g></g></g></g><defs v-gra="od"></defs></svg>